<svg width="355.9625px" height="121.39999999999999px" xmlns="http://www.w3.org/2000/svg" viewBox="72.01875000000001 14.300000000000004 355.9625 121.39999999999999" style="background: rgba(0, 0, 0, 0);" preserveAspectRatio="xMidYMid"><defs><linearGradient id="editing-shiny-gradient" x1="0.04322727117869957" x2="0.9567727288213004" y1="0.2966316784620999" y2="0.7033683215379001" gradientUnits="objectBoundingBox"><stop offset="0.0" stop-color="#ffb200"></stop><stop offset="0.5" stop-color="#e10057"></stop><stop offset="1.0" stop-color="#5A1A80"></stop></linearGradient><linearGradient id="editing-shiny-gradient2" x1="0" x2="0" y1="0" y2="1"><stop offset="0.2" stop-color="#fff" stop-opacity="0.8"></stop><stop offset="0.8" stop-color="#fff" stop-opacity="0"></stop></linearGradient><filter id="editing-shiny2" x="-100%" y="-100%" width="300%" height="300%"><feMorphology operator="erode" radius="2"></feMorphology></filter><filter id="editing-shiny" x="-100%" y="-100%" width="300%" height="300%"><feFlood flood-color="#fff" result="flood"></feFlood><feConvolveMatrix in="SourceGraphic" result="conv" order="8,8" divisor="1" kernelMatrix="0 0 0 0 0 0 0 0 0 0 0 1 1 0 0 0 0 0 0 1 1 0 0 0 0 0 1 0 0 1 0 0 0 0 1 0 0 1 0 0 0 1 0 0 0 0 1 0 0 1 1 0 0 1 1 0 0 0 0 1 1 0 0 0 "></feConvolveMatrix><feOffset dx="0" dy="4" in="conv" result="offset"></feOffset><feComposite operator="in" in="flood" in2="offset" result="comp"></feComposite><feGaussianBlur in="offset" stdDeviation="3" result="shadow"></feGaussianBlur><feColorMatrix in="shadow" type="matrix" values="0.7 0 0 0 0  0 0.7 0 0 0  0 0 0.7 0 0  0 0 0 0.3 0" result="dark-shadow"></feColorMatrix><feOffset dx="0" dy="4" in="dark-shadow" result="offset-shadow"></feOffset><feOffset dx="0" dy="2" in="conv" result="offset-2"></feOffset><feComposite operator="out" in="offset" in2="offset-2" result="edge-diff"></feComposite><feGaussianBlur in="edge-diff" stdDeviation="1" result="edge-blur"></feGaussianBlur><feColorMatrix in="edge-blur" result="edge-shadow" type="matrix" values="0 0 0 0 0  0 0 0 0 0  0 0 0 0 0  0 0 0 0.5 0"></feColorMatrix><feComposite operator="in" in="edge-shadow" in2="offset" result="edge-shadow-in"></feComposite><feOffset dx="0" dy="1" in="edge-shadow-in" result="edge-shadow-final"></feOffset><feMerge result="out"><feMergeNode in="offset-shadow"></feMergeNode><feMergeNode in="comp"></feMergeNode><feMergeNode in="edge-shadow-final"></feMergeNode><feMergeNode in="SourceGraphic"></feMergeNode></feMerge></filter></defs><g filter="url(#editing-shiny)"><g transform="translate(127.56498777866364, 97.4000015258789)"><path d="M34.50-13.25L34.50-13.25L34.50-13.25Q36.16-12.03 36.16-9.44L36.16-9.44L36.16-9.44Q36.16-6.85 35.04-5.02L35.04-5.02L35.04-5.02Q33.92-3.20 31.74-1.79L31.74-1.79L31.74-1.79Q27.07 1.22 18.91 1.22L18.91 1.22L18.91 1.22Q10.75 1.22 6.30-3.04L6.30-3.04L6.30-3.04Q1.86-7.30 1.86-14.85L1.86-14.85L1.86-14.85Q1.86-25.54 7.42-33.66L7.42-33.66L7.42-33.66Q11.65-39.68 19.20-42.24L19.20-42.24L19.20-42.24Q23.10-43.52 26.94-43.52L26.94-43.52L26.94-43.52Q30.78-43.52 33.15-43.01L33.15-43.01L33.15-43.01Q35.52-42.50 37.31-41.47L37.31-41.47L37.31-41.47Q41.22-39.23 41.22-35.65L41.22-35.65L41.22-35.65Q41.22-32.38 38.14-29.95L38.14-29.95L38.14-29.95Q35.33-27.78 33.02-27.78L33.02-27.78L33.02-27.78Q30.72-27.78 29.76-28.10L29.76-28.10L29.76-28.10Q30.02-30.40 30.02-31.90L30.02-31.90L30.02-31.90Q30.02-33.41 29.95-34.50L29.95-34.50L29.95-34.50Q29.89-35.58 29.57-36.61L29.57-36.61L29.57-36.61Q28.93-38.98 26.98-38.98L26.98-38.98L26.98-38.98Q25.02-38.98 23.07-37.15L23.07-37.15L23.07-37.15Q21.12-35.33 19.46-32.26L19.46-32.26L19.46-32.26Q15.68-25.28 15.68-17.02L15.68-17.02L15.68-17.02Q15.68-13.06 17.92-10.78L17.92-10.78L17.92-10.78Q20.16-8.51 24.96-8.51L24.96-8.51L24.96-8.51Q28.54-8.51 31.94-10.88L31.94-10.88L31.94-10.88Q33.41-11.90 34.50-13.25ZM67.39-10.82L67.39-10.82L67.39-10.82Q68.99-9.73 68.99-7.33L68.99-7.33L68.99-7.33Q68.99-4.93 67.78-3.39L67.78-3.39L67.78-3.39Q66.56-1.86 64.58-0.83L64.58-0.83L64.58-0.83Q60.48 1.28 56.06 1.28L56.06 1.28L56.06 1.28Q51.65 1.28 49.06 0.32L49.06 0.32L49.06 0.32Q46.46-0.64 44.74-2.43L44.74-2.43L44.74-2.43Q41.34-5.82 41.34-12.03L41.34-12.03L41.34-12.03Q41.34-21.70 46.59-27.58L46.59-27.58L46.59-27.58Q52.22-33.92 62.02-33.92L62.02-33.92L62.02-33.92Q68.10-33.92 71.10-31.36L71.10-31.36L71.10-31.36Q73.34-29.44 73.34-26.30L73.34-26.30L73.34-26.30Q73.34-15.04 53.89-15.04L53.89-15.04L53.89-15.04Q53.63-13.38 53.63-11.97L53.63-11.97L53.63-11.97Q53.63-9.02 54.94-7.90L54.94-7.90L54.94-7.90Q56.26-6.78 58.69-6.78L58.69-6.78L58.69-6.78Q61.12-6.78 63.71-7.90L63.71-7.90L63.71-7.90Q66.30-9.02 67.39-10.82ZM54.34-17.79L54.34-17.79L54.34-17.79Q58.88-17.79 61.50-20.61L61.50-20.61L61.50-20.61Q64.13-23.30 64.13-27.58L64.13-27.58L64.13-27.58Q64.13-29.06 63.58-29.86L63.58-29.86L63.58-29.86Q63.04-30.66 61.95-30.66L61.95-30.66L61.95-30.66Q60.86-30.66 59.94-30.24L59.94-30.24L59.94-30.24Q59.01-29.82 58.05-28.42L58.05-28.42L58.05-28.42Q55.68-25.22 54.34-17.79ZM95.55-17.98L95.55-17.98L95.55-17.98Q97.86-22.08 97.86-26.24L97.86-26.24L97.86-26.24Q97.86-28.99 95.87-28.99L95.87-28.99L95.87-28.99Q94.34-28.99 92.74-26.37L92.74-26.37L92.74-26.37Q91.07-23.74 90.56-20.35L90.56-20.35L87.23 0L73.98 1.28L80.51-32.64L91.07-33.92L89.92-27.46L89.92-27.46Q93.06-33.92 100.10-33.92L100.10-33.92L100.10-33.92Q103.81-33.92 105.82-32L105.82-32L105.82-32Q107.84-30.08 107.84-26.14L107.84-26.14L107.84-26.14Q107.84-22.21 105.25-19.71L105.25-19.71L105.25-19.71Q102.66-17.22 98.24-17.22L98.24-17.22L98.24-17.22Q96.32-17.22 95.55-17.98ZM109.89-6.40L109.89-6.40L109.89-6.40Q109.89-8.13 110.78-12.48L110.78-12.48L114.18-29.76L110.40-29.76L110.66-31.68L110.66-31.68Q118.34-33.98 125.76-39.62L125.76-39.62L128.83-39.62L127.30-32.64L132.29-32.64L131.71-29.76L126.78-29.76L123.52-12.48L123.52-12.48Q122.69-8.51 122.69-7.17L122.69-7.17L122.69-7.17Q122.69-4.10 125.38-3.46L125.38-3.46L125.38-3.46Q124.74-1.28 122.43 0L122.43 0L122.43 0Q120.13 1.28 116.86 1.28L116.86 1.28L116.86 1.28Q113.60 1.28 111.74-0.77L111.74-0.77L111.74-0.77Q109.89-2.82 109.89-6.40ZM157.89-20.61L170.82-21.76L170.82-21.76Q166.21-11.65 166.21 0.06L166.21 0.06L166.21 0.06Q164.48 1.28 161.95 1.28L161.95 1.28L161.95 1.28Q159.42 1.28 157.82 0.10L157.82 0.10L157.82 0.10Q156.22-1.09 155.90-2.30L155.90-2.30L155.90-2.30Q154.30-0.64 151.71 0.32L151.71 0.32L151.71 0.32Q149.12 1.28 146.37 1.28L146.37 1.28L146.37 1.28Q143.62 1.28 141.22 0.38L141.22 0.38L141.22 0.38Q138.82-0.51 136.96-2.50L136.96-2.50L136.96-2.50Q132.86-6.85 132.86-15.10L132.86-15.10L132.86-15.10Q132.86-27.90 139.71-35.58L139.71-35.58L139.71-35.58Q146.75-43.52 159.23-43.52L159.23-43.52L159.23-43.52Q167.87-43.52 170.94-39.04L170.94-39.04L170.94-39.04Q171.90-37.63 171.90-35.94L171.90-35.94L171.90-35.94Q171.90-34.24 171.17-32.80L171.17-32.80L171.17-32.80Q170.43-31.36 169.28-30.21L169.28-30.21L169.28-30.21Q166.53-27.65 163.14-27.65L163.14-27.65L163.14-27.65Q161.79-27.65 160.51-28.10L160.51-28.10L160.51-28.10Q160.77-30.02 160.77-32.26L160.77-32.26L160.77-32.26Q160.77-34.50 160.61-35.52L160.61-35.52L160.61-35.52Q160.45-36.54 160.06-37.38L160.06-37.38L160.06-37.38Q159.23-39.10 157.41-39.10L157.41-39.10L157.41-39.10Q155.58-39.10 153.57-37.15L153.57-37.15L153.57-37.15Q151.55-35.20 149.95-32L149.95-32L149.95-32Q146.43-24.83 146.43-16.19L146.43-16.19L146.43-16.19Q146.43-12.22 147.97-9.41L147.97-9.41L147.97-9.41Q149.63-6.34 152.58-6.34L152.58-6.34L152.58-6.34Q153.60-6.34 154.53-6.85L154.53-6.85L154.53-6.85Q155.46-7.36 155.84-7.74L155.84-7.74L157.89-20.61ZM199.87-10.82L199.87-10.82L199.87-10.82Q201.47-9.73 201.47-7.33L201.47-7.33L201.47-7.33Q201.47-4.93 200.26-3.39L200.26-3.39L200.26-3.39Q199.04-1.86 197.06-0.83L197.06-0.83L197.06-0.83Q192.96 1.28 188.54 1.28L188.54 1.28L188.54 1.28Q184.13 1.28 181.54 0.32L181.54 0.32L181.54 0.32Q178.94-0.64 177.22-2.43L177.22-2.43L177.22-2.43Q173.82-5.82 173.82-12.03L173.82-12.03L173.82-12.03Q173.82-21.70 179.07-27.58L179.07-27.58L179.07-27.58Q184.70-33.92 194.50-33.92L194.50-33.92L194.50-33.92Q200.58-33.92 203.58-31.36L203.58-31.36L203.58-31.36Q205.82-29.44 205.82-26.30L205.82-26.30L205.82-26.30Q205.82-15.04 186.37-15.04L186.37-15.04L186.37-15.04Q186.11-13.38 186.11-11.97L186.11-11.97L186.11-11.97Q186.11-9.02 187.42-7.90L187.42-7.90L187.42-7.90Q188.74-6.78 191.17-6.78L191.17-6.78L191.17-6.78Q193.60-6.78 196.19-7.90L196.19-7.90L196.19-7.90Q198.78-9.02 199.87-10.82ZM186.82-17.79L186.82-17.79L186.82-17.79Q191.36-17.79 193.98-20.61L193.98-20.61L193.98-20.61Q196.61-23.30 196.61-27.58L196.61-27.58L196.61-27.58Q196.61-29.06 196.06-29.86L196.06-29.86L196.06-29.86Q195.52-30.66 194.43-30.66L194.43-30.66L194.43-30.66Q193.34-30.66 192.42-30.24L192.42-30.24L192.42-30.24Q191.49-29.82 190.53-28.42L190.53-28.42L190.53-28.42Q188.16-25.22 186.82-17.79ZM235.07 1.28L235.07 1.28L235.07 1.28Q227.33 1.28 227.33-4.74L227.33-4.74L227.33-4.74Q227.39-6.40 227.90-9.22L227.90-9.22L229.06-15.10L229.06-15.10Q230.78-23.42 230.78-25.28L230.78-25.28L230.78-25.28Q230.78-28.99 228.61-28.99L228.61-28.99L228.61-28.99Q224.96-28.99 223.04-19.46L223.04-19.46L219.26 0L206.40 1.28L213.06-32.70L223.55-33.92L222.53-27.65L222.53-27.65Q225.54-33.92 234.75-33.92L234.75-33.92L234.75-33.92Q239.23-33.92 241.12-32.03L241.12-32.03L241.12-32.03Q243.01-30.14 243.01-25.92L243.01-25.92L243.01-25.92Q243.01-21.95 240.96-12.67L240.96-12.67L240.96-12.67Q240-8.51 240-6.94L240-6.94L240-6.94Q240-5.38 240.86-4.48L240.86-4.48L240.86-4.48Q241.73-3.58 243.01-3.46L243.01-3.46L243.01-3.46Q242.37-1.28 240.16 0L240.16 0L240.16 0Q237.95 1.28 235.07 1.28Z" fill="url(#editing-shiny-gradient)"></path></g></g><g filter="url(#editing-shiny2)"><g transform="translate(127.56501066684723, 97.39999771118164)"><path d="M34.50-13.25L34.50-13.25L34.50-13.25Q36.16-12.03 36.16-9.44L36.16-9.44L36.16-9.44Q36.16-6.85 35.04-5.02L35.04-5.02L35.04-5.02Q33.92-3.20 31.74-1.79L31.74-1.79L31.74-1.79Q27.07 1.22 18.91 1.22L18.91 1.22L18.91 1.22Q10.75 1.22 6.30-3.04L6.30-3.04L6.30-3.04Q1.86-7.30 1.86-14.85L1.86-14.85L1.86-14.85Q1.86-25.54 7.42-33.66L7.42-33.66L7.42-33.66Q11.65-39.68 19.20-42.24L19.20-42.24L19.20-42.24Q23.10-43.52 26.94-43.52L26.94-43.52L26.94-43.52Q30.78-43.52 33.15-43.01L33.15-43.01L33.15-43.01Q35.52-42.50 37.31-41.47L37.31-41.47L37.31-41.47Q41.22-39.23 41.22-35.65L41.22-35.65L41.22-35.65Q41.22-32.38 38.14-29.95L38.14-29.95L38.14-29.95Q35.33-27.78 33.02-27.78L33.02-27.78L33.02-27.78Q30.72-27.78 29.76-28.10L29.76-28.10L29.76-28.10Q30.02-30.40 30.02-31.90L30.02-31.90L30.02-31.90Q30.02-33.41 29.95-34.50L29.95-34.50L29.95-34.50Q29.89-35.58 29.57-36.61L29.57-36.61L29.57-36.61Q28.93-38.98 26.98-38.98L26.98-38.98L26.98-38.98Q25.02-38.98 23.07-37.15L23.07-37.15L23.07-37.15Q21.12-35.33 19.46-32.26L19.46-32.26L19.46-32.26Q15.68-25.28 15.68-17.02L15.68-17.02L15.68-17.02Q15.68-13.06 17.92-10.78L17.92-10.78L17.92-10.78Q20.16-8.51 24.96-8.51L24.96-8.51L24.96-8.51Q28.54-8.51 31.94-10.88L31.94-10.88L31.94-10.88Q33.41-11.90 34.50-13.25ZM67.39-10.82L67.39-10.82L67.39-10.82Q68.99-9.73 68.99-7.33L68.99-7.33L68.99-7.33Q68.99-4.93 67.78-3.39L67.78-3.39L67.78-3.39Q66.56-1.86 64.58-0.83L64.58-0.83L64.58-0.83Q60.48 1.28 56.06 1.28L56.06 1.28L56.06 1.28Q51.65 1.28 49.06 0.32L49.06 0.32L49.06 0.32Q46.46-0.64 44.74-2.43L44.74-2.43L44.74-2.43Q41.34-5.82 41.34-12.03L41.34-12.03L41.34-12.03Q41.34-21.70 46.59-27.58L46.59-27.58L46.59-27.58Q52.22-33.92 62.02-33.92L62.02-33.92L62.02-33.92Q68.10-33.92 71.10-31.36L71.10-31.36L71.10-31.36Q73.34-29.44 73.34-26.30L73.34-26.30L73.34-26.30Q73.34-15.04 53.89-15.04L53.89-15.04L53.89-15.04Q53.63-13.38 53.63-11.97L53.63-11.97L53.63-11.97Q53.63-9.02 54.94-7.90L54.94-7.90L54.94-7.90Q56.26-6.78 58.69-6.78L58.69-6.78L58.69-6.78Q61.12-6.78 63.71-7.90L63.71-7.90L63.71-7.90Q66.30-9.02 67.39-10.82ZM54.34-17.79L54.34-17.79L54.34-17.79Q58.88-17.79 61.50-20.61L61.50-20.61L61.50-20.61Q64.13-23.30 64.13-27.58L64.13-27.58L64.13-27.58Q64.13-29.06 63.58-29.86L63.58-29.86L63.58-29.86Q63.04-30.66 61.95-30.66L61.95-30.66L61.95-30.66Q60.86-30.66 59.94-30.24L59.94-30.24L59.94-30.24Q59.01-29.82 58.05-28.42L58.05-28.42L58.05-28.42Q55.68-25.22 54.34-17.79ZM95.55-17.98L95.55-17.98L95.55-17.98Q97.86-22.08 97.86-26.24L97.86-26.24L97.86-26.24Q97.86-28.99 95.87-28.99L95.87-28.99L95.87-28.99Q94.34-28.99 92.74-26.37L92.74-26.37L92.74-26.37Q91.07-23.74 90.56-20.35L90.56-20.35L87.23 0L73.98 1.28L80.51-32.64L91.07-33.92L89.92-27.46L89.92-27.46Q93.06-33.92 100.10-33.92L100.10-33.92L100.10-33.92Q103.81-33.92 105.82-32L105.82-32L105.82-32Q107.84-30.08 107.84-26.14L107.84-26.14L107.84-26.14Q107.84-22.21 105.25-19.71L105.25-19.71L105.25-19.71Q102.66-17.22 98.24-17.22L98.24-17.22L98.24-17.22Q96.32-17.22 95.55-17.98ZM109.89-6.40L109.89-6.40L109.89-6.40Q109.89-8.13 110.78-12.48L110.78-12.48L114.18-29.76L110.40-29.76L110.66-31.68L110.66-31.68Q118.34-33.98 125.76-39.62L125.76-39.62L128.83-39.62L127.30-32.64L132.29-32.64L131.71-29.76L126.78-29.76L123.52-12.48L123.52-12.48Q122.69-8.51 122.69-7.17L122.69-7.17L122.69-7.17Q122.69-4.10 125.38-3.46L125.38-3.46L125.38-3.46Q124.74-1.28 122.43 0L122.43 0L122.43 0Q120.13 1.28 116.86 1.28L116.86 1.28L116.86 1.28Q113.60 1.28 111.74-0.77L111.74-0.77L111.74-0.77Q109.89-2.82 109.89-6.40ZM157.89-20.61L170.82-21.76L170.82-21.76Q166.21-11.65 166.21 0.06L166.21 0.06L166.21 0.06Q164.48 1.28 161.95 1.28L161.95 1.28L161.95 1.28Q159.42 1.28 157.82 0.10L157.82 0.10L157.82 0.10Q156.22-1.09 155.90-2.30L155.90-2.30L155.90-2.30Q154.30-0.64 151.71 0.32L151.71 0.32L151.71 0.32Q149.12 1.28 146.37 1.28L146.37 1.28L146.37 1.28Q143.62 1.28 141.22 0.38L141.22 0.38L141.22 0.38Q138.82-0.51 136.96-2.50L136.96-2.50L136.96-2.50Q132.86-6.85 132.86-15.10L132.86-15.10L132.86-15.10Q132.86-27.90 139.71-35.58L139.71-35.58L139.71-35.58Q146.75-43.52 159.23-43.52L159.23-43.52L159.23-43.52Q167.87-43.52 170.94-39.04L170.94-39.04L170.94-39.04Q171.90-37.63 171.90-35.94L171.90-35.94L171.90-35.94Q171.90-34.24 171.17-32.80L171.17-32.80L171.17-32.80Q170.43-31.36 169.28-30.21L169.28-30.21L169.28-30.21Q166.53-27.65 163.14-27.65L163.14-27.65L163.14-27.65Q161.79-27.65 160.51-28.10L160.51-28.10L160.51-28.10Q160.77-30.02 160.77-32.26L160.77-32.26L160.77-32.26Q160.77-34.50 160.61-35.52L160.61-35.52L160.61-35.52Q160.45-36.54 160.06-37.38L160.06-37.38L160.06-37.38Q159.23-39.10 157.41-39.10L157.41-39.10L157.41-39.10Q155.58-39.10 153.57-37.15L153.57-37.15L153.57-37.15Q151.55-35.20 149.95-32L149.95-32L149.95-32Q146.43-24.83 146.43-16.19L146.43-16.19L146.43-16.19Q146.43-12.22 147.97-9.41L147.97-9.41L147.97-9.41Q149.63-6.34 152.58-6.34L152.58-6.34L152.58-6.34Q153.60-6.34 154.53-6.85L154.53-6.85L154.53-6.85Q155.46-7.36 155.84-7.74L155.84-7.74L157.89-20.61ZM199.87-10.82L199.87-10.82L199.87-10.82Q201.47-9.73 201.47-7.33L201.47-7.33L201.47-7.33Q201.47-4.93 200.26-3.39L200.26-3.39L200.26-3.39Q199.04-1.86 197.06-0.83L197.06-0.83L197.06-0.83Q192.96 1.28 188.54 1.28L188.54 1.28L188.54 1.28Q184.13 1.28 181.54 0.32L181.54 0.32L181.54 0.32Q178.94-0.64 177.22-2.43L177.22-2.43L177.22-2.43Q173.82-5.82 173.82-12.03L173.82-12.03L173.82-12.03Q173.82-21.70 179.07-27.58L179.07-27.58L179.07-27.58Q184.70-33.92 194.50-33.92L194.50-33.92L194.50-33.92Q200.58-33.92 203.58-31.36L203.58-31.36L203.58-31.36Q205.82-29.44 205.82-26.30L205.82-26.30L205.82-26.30Q205.82-15.04 186.37-15.04L186.37-15.04L186.37-15.04Q186.11-13.38 186.11-11.97L186.11-11.97L186.11-11.97Q186.11-9.02 187.42-7.90L187.42-7.90L187.42-7.90Q188.74-6.78 191.17-6.78L191.17-6.78L191.17-6.78Q193.60-6.78 196.19-7.90L196.19-7.90L196.19-7.90Q198.78-9.02 199.87-10.82ZM186.82-17.79L186.82-17.79L186.82-17.79Q191.36-17.79 193.98-20.61L193.98-20.61L193.98-20.61Q196.61-23.30 196.61-27.58L196.61-27.58L196.61-27.58Q196.61-29.06 196.06-29.86L196.06-29.86L196.06-29.86Q195.52-30.66 194.43-30.66L194.43-30.66L194.43-30.66Q193.34-30.66 192.42-30.24L192.42-30.24L192.42-30.24Q191.49-29.82 190.53-28.42L190.53-28.42L190.53-28.42Q188.16-25.22 186.82-17.79ZM235.07 1.28L235.07 1.28L235.07 1.28Q227.33 1.28 227.33-4.74L227.33-4.74L227.33-4.74Q227.39-6.40 227.90-9.22L227.90-9.22L229.06-15.10L229.06-15.10Q230.78-23.42 230.78-25.28L230.78-25.28L230.78-25.28Q230.78-28.99 228.61-28.99L228.61-28.99L228.61-28.99Q224.96-28.99 223.04-19.46L223.04-19.46L219.26 0L206.40 1.28L213.06-32.70L223.55-33.92L222.53-27.65L222.53-27.65Q225.54-33.92 234.75-33.92L234.75-33.92L234.75-33.92Q239.23-33.92 241.12-32.03L241.12-32.03L241.12-32.03Q243.01-30.14 243.01-25.92L243.01-25.92L243.01-25.92Q243.01-21.95 240.96-12.67L240.96-12.67L240.96-12.67Q240-8.51 240-6.94L240-6.94L240-6.94Q240-5.38 240.86-4.48L240.86-4.48L240.86-4.48Q241.73-3.58 243.01-3.46L243.01-3.46L243.01-3.46Q242.37-1.28 240.16 0L240.16 0L240.16 0Q237.95 1.28 235.07 1.28Z" fill="url(#editing-shiny-gradient2)"></path></g></g><style>text {
  font-size: 64px;
  font-family: Arial Black;
  dominant-baseline: central;
  text-anchor: middle;
}</style></svg>